AyannaNarrowTamil-Light.ufo
<glyph name="uni0031" format="1">
  <advance width="226"/>
  <unicode hex="0031"/>
  <outline>
    <contour>
      <point x="16" y="535" type="line"/>
      <point x="122" y="590" type="line"/>
      <point x="154" y="590" type="line"/>
      <point x="154" y="0" type="line"/>
      <point x="120" y="0" type="line"/>
      <point x="120" y="548" type="line"/>
      <point x="31" y="503" type="line"/>
    </contour>
  </outline>
</glyph>
<glyph name="uni0032" format="1">
  <advance width="432"/>
  <unicode hex="0032"/>
  <outline>
    <contour>
      <point x="20" y="449" type="line"/>
      <point x="42" y="526"/>
      <point x="115.888" y="597"/>
      <point x="210" y="597" type="curve" smooth="yes"/>
      <point x="321.638" y="597"/>
      <point x="410.898" y="504.425"/>
      <point x="385" y="353" type="curve" smooth="yes"/>
      <point x="359.458" y="197.254"/>
      <point x="153.3" y="187.479"/>
      <point x="79" y="35" type="curve"/>
      <point x="407" y="35" type="line"/>
      <point x="407" y="0" type="line"/>
      <point x="37" y="0" type="line"/>
      <point x="37" y="33" type="line"/>
      <point x="133.497" y="235.345"/>
      <point x="328.555" y="222.039"/>
      <point x="351" y="359" type="curve" smooth="yes"/>
      <point x="373.654" y="492.968"/>
      <point x="302.265" y="561.483"/>
      <point x="211" y="562" type="curve" smooth="yes"/>
      <point x="101.984" y="562.649"/>
      <point x="65" y="477.039"/>
      <point x="51" y="437" type="curve"/>
    </contour>
  </outline>
</glyph>
<glyph name="uni0033" format="1">
  <advance width="419"/>
  <unicode hex="0033"/>
  <outline>
    <contour>
      <point x="20" y="131" type="curve"/>
      <point x="51" y="143" type="line"/>
      <point x="64.125" y="106.164"/>
      <point x="98.7973" y="27.435"/>
      <point x="201" y="28" type="curve" smooth="yes"/>
      <point x="277.045" y="28.3873"/>
      <point x="338.795" y="72.5068"/>
      <point x="341.638" y="147" type="curve" smooth="yes"/>
      <point x="343.71" y="235.588"/>
      <point x="290.523" y="276.042"/>
      <point x="181" y="282" type="curve"/>
      <point x="181" y="321" type="line"/>
      <point x="260.566" y="324.747"/>
      <point x="333.54" y="361.218"/>
      <point x="339" y="432" type="curve" smooth="yes"/>
      <point x="342.953" y="500.518"/>
      <point x="290.96" y="561.42"/>
      <point x="201" y="562" type="curve" smooth="yes"/>
      <point x="98.7975" y="562.649"/>
      <point x="64.125" y="477.039"/>
      <point x="51" y="437" type="curve"/>
      <point x="20" y="449" type="line"/>
      <point x="40.8421" y="526"/>
      <point x="110.842" y="597"/>
      <point x="200" y="597" type="curve" smooth="yes"/>
      <point x="311" y="597"/>
      <point x="376.62" y="520.748"/>
      <point x="374" y="432" type="curve" smooth="yes"/>
      <point x="369.2" y="342.472"/>
      <point x="287.902" y="303.254"/>
      <point x="242" y="302" type="curve"/>
      <point x="334.693" y="294"/>
      <point x="378.941" y="222.706"/>
      <point x="377.573" y="147" type="curve" smooth="yes"/>
      <point x="375.821" y="50.0131"/>
      <point x="286.207" y="-7"/>
      <point x="200" y="-7" type="curve" smooth="yes"/>
      <point x="110.842" y="-7"/>
      <point x="40.8421" y="59.2027"/>
    </contour>
  </outline>
</glyph>
<glyph name="tml_A" format="1">
  <advance width="796"/>
  <unicode hex="0B85"/>
  <outline>
    <contour>
      <point x="690" y="-119" type="line"/>
      <point x="690" y="521" type="line"/>
      <point x="726" y="521" type="line"/>
      <point x="726" y="-119" type="line"/>
    </contour>
    <contour>
      <point x="50" y="64" type="curve" smooth="yes"/>
      <point x="50" y="167"/>
      <point x="118.318" y="215"/>
      <point x="217" y="215" type="curve" smooth="yes"/>
      <point x="698" y="215" type="line"/>
      <point x="698" y="181" type="line"/>
      <point x="217" y="181" type="line" smooth="yes"/>
      <point x="134.847" y="181"/>
      <point x="86" y="145"/>
      <point x="86" y="64" type="curve" smooth="yes"/>
      <point x="86" y="-63"/>
      <point x="203" y="-100"/>
      <point x="298" y="-100" type="curve" smooth="yes"/>
      <point x="421.052" y="-100"/>
      <point x="542" y="-11.3791"/>
      <point x="542" y="198" type="curve" smooth="yes"/>
      <point x="542" y="333.398"/>
      <point x="489.923" y="499"/>
      <point x="346" y="499" type="curve" smooth="yes"/>
      <point x="303.961" y="499"/>
      <point x="263" y="470.759"/>
      <point x="263" y="408" type="curve" smooth="yes"/>
      <point x="263" y="362"/>
      <point x="287" y="322"/>
      <point x="337" y="322" type="curve" smooth="yes"/>
      <point x="386" y="322"/>
      <point x="401" y="360"/>
      <point x="402" y="409" type="curve" smooth="yes"/>
      <point x="402" y="441.845"/>
      <point x="387.429" y="508.645"/>
      <point x="334" y="498" type="curve"/>
      <point x="368" y="527" type="line"/>
      <point x="429.062" y="511.474"/>
      <point x="438" y="452.474"/>
      <point x="438" y="409" type="curve" smooth="yes"/>
      <point x="438" y="328"/>
      <point x="394.574" y="288"/>
      <point x="336" y="288" type="curve" smooth="yes"/>
      <point x="267" y="288"/>
      <point x="227" y="340"/>
      <point x="227" y="408" type="curve" smooth="yes"/>
      <point x="227" y="491"/>
      <point x="281" y="536"/>
      <point x="348" y="536" type="curve" smooth="yes"/>
      <point x="508.147" y="537.021"/>
      <point x="578.029" y="354.224"/>
      <point x="579" y="199" type="curve" smooth="yes"/>
      <point x="580.037" y="8.01471"/>
      <point x="476.36" y="-134"/>
      <point x="297" y="-134" type="curve" smooth="yes"/>
      <point x="133" y="-134"/>
      <point x="50" y="-49"/>
    </contour>
  </outline>
</glyph>
<glyph name="tml_Aa" format="1">
  <advance width="1024"/>
  <unicode hex="0B86"/>
  <outline>
    <contour>
      <point x="553" y="-130" type="curve"/>
      <point x="585" y="-126" type="line"/>
      <point x="597.489" y="-277.29"/>
      <point x="674.503" y="-340.554"/>
      <point x="805" y="-329" type="curve" smooth="yes"/>
      <point x="912.044" y="-319.522"/>
      <point x="960" y="-219.232"/>
      <point x="960" y="-114" type="curve" smooth="yes"/>
      <point x="960" y="-5.07843"/>
      <point x="928.486" y="88"/>
      <point x="838" y="88" type="curve" smooth="yes"/>
      <point x="755.993" y="88"/>
      <point x="727.031" y="29.2898"/>
      <point x="726" y="-20" type="curve"/>
      <point x="690" y="-53" type="line"/>
      <point x="687.899" y="61.8019"/>
      <point x="746.388" y="122"/>
      <point x="836" y="122" type="curve" smooth="yes"/>
      <point x="955.856" y="122"/>
      <point x="994" y="4.8245"/>
      <point x="994" y="-110" type="curve" smooth="yes"/>
      <point x="994" y="-256.872"/>
      <point x="925.115" y="-350.475"/>
      <point x="808" y="-361" type="curve" smooth="yes"/>
      <point x="703.227" y="-370.416"/>
      <point x="571.644" y="-344.111"/>
    </contour>
    <component base="tml_A" xOffset="-1"/>
  </outline>
</glyph>
<glyph name="tml_I" format="1">
  <advance width="975"/>
  <unicode hex="0B87"/>
  <outline>
    <contour>
      <point x="73" y="49" type="curve" smooth="yes"/>
      <point x="72.0193" y="250.294"/>
      <point x="286.204" y="280"/>
      <point x="427" y="280" type="curve" smooth="yes"/>
      <point x="574.881" y="280"/>
      <point x="768.199" y="214.627"/>
      <point x="768.009" y="49" type="curve" smooth="yes"/>
      <point x="767.908" y="-31.4294"/>
      <point x="741.53" y="-143.997"/>
      <point x="590.464" y="-143.97" type="curve" smooth="yes"/>
      <point x="327.614" y="-143.926"/>
      <point x="185.37" y="153.094"/>
      <point x="185.427" y="419.216" type="curve" smooth="yes"/>
      <point x="185.471" y="633.539"/>
      <point x="301.746" y="767.903"/>
      <point x="508" y="766.402" type="curve" smooth="yes"/>
      <point x="753.591" y="764.642"/>
      <point x="865.517" y="561.108"/>
      <point x="865.513" y="234" type="curve" smooth="yes"/>
      <point x="865.512" y="154.137"/>
      <point x="865.794" y="-57.8044"/>
      <point x="866" y="-118" type="curve"/>
      <point x="828.432" y="-118.012" type="line"/>
      <point x="829.182" y="-65.9081"/>
      <point x="830.664" y="158.92"/>
      <point x="830.316" y="253" type="curve" smooth="yes"/>
      <point x="829.214" y="547.288"/>
      <point x="717.369" y="730.272"/>
      <point x="504" y="729.685" type="curve" smooth="yes"/>
      <point x="350.191" y="729.279"/>
      <point x="222.39" y="639.237"/>
      <point x="222.046" y="420.878" type="curve" smooth="yes"/>
      <point x="221.543" y="127.698"/>
      <point x="386.033" y="-106.198"/>
      <point x="589.679" y="-106.198" type="curve" smooth="yes"/>
      <point x="716.235" y="-106.198"/>
      <point x="732.945" y="-9.84959"/>
      <point x="732.945" y="49" type="curve" smooth="yes"/>
      <point x="732.945" y="147.075"/>
      <point x="632.427" y="241"/>
      <point x="429" y="241" type="curve" smooth="yes"/>
      <point x="207.084" y="241"/>
      <point x="109" y="161.3"/>
      <point x="109" y="49" type="curve" smooth="yes"/>
      <point x="109" y="-41.17"/>
      <point x="158.897" y="-99"/>
      <point x="265" y="-99" type="curve" smooth="yes"/>
      <point x="425.654" y="-99"/>
      <point x="567.442" y="39.5443"/>
      <point x="608" y="288" type="curve" smooth="yes"/>
      <point x="630.808" y="427.805"/>
      <point x="597.812" y="576.682"/>
      <point x="461" y="576" type="curve" smooth="yes"/>
      <point x="412.732" y="575.679"/>
      <point x="381" y="529.126"/>
      <point x="381" y="471" type="curve" smooth="yes"/>
      <point x="381" y="414.479"/>
      <point x="413.335" y="367.006"/>
      <point x="463" y="367" type="curve" smooth="yes"/>
      <point x="507.246" y="366.995"/>
      <point x="539" y="397.632"/>
      <point x="539" y="464" type="curve" smooth="yes"/>
      <point x="539" y="545.89"/>
      <point x="494.908" y="576"/>
      <point x="462" y="576" type="curve"/>
      <point x="540" y="579" type="line"/>
      <point x="565.063" y="537.745"/>
      <point x="576.304" y="498.444"/>
      <point x="576.326" y="463" type="curve" smooth="yes"/>
      <point x="576.377" y="383.425"/>
      <point x="535.435" y="327.499"/>
      <point x="463" y="327" type="curve" smooth="yes"/>
      <point x="395.725" y="326.521"/>
      <point x="344.684" y="382.199"/>
      <point x="344" y="465" type="curve" smooth="yes"/>
      <point x="343.317" y="558.083"/>
      <point x="394.182" y="616.496"/>
      <point x="463" y="616" type="curve" smooth="yes"/>
      <point x="616.164" y="615.06"/>
      <point x="665.126" y="450.562"/>
      <point x="643" y="286" type="curve" smooth="yes"/>
      <point x="610.804" y="21.8392"/>
      <point x="427.58" y="-144"/>
      <point x="275" y="-144" type="curve" smooth="yes"/>
      <point x="130.161" y="-144"/>
      <point x="73.5524" y="-61.5052"/>
    </contour>
  </outline>
</glyph>
<glyph name="tml_Ii" format="1">
  <advance width="542"/>
  <unicode hex="0B88"/>
  <outline>
    <contour>
      <point x="207.2" y="277" type="curve" smooth="yes"/>
      <point x="207.2" y="259"/>
      <point x="222.5" y="243.7"/>
      <point x="240.5" y="243.7" type="curve" smooth="yes"/>
      <point x="258.5" y="243.7"/>
      <point x="273.8" y="259"/>
      <point x="273.8" y="277" type="curve" smooth="yes"/>
      <point x="273.8" y="295"/>
      <point x="258.5" y="310.3"/>
      <point x="240.5" y="310.3" type="curve" smooth="yes"/>
      <point x="222.5" y="310.3"/>
      <point x="207.2" y="295"/>
    </contour>
    <contour>
      <point x="422.2" y="277" type="curve" smooth="yes"/>
      <point x="422.2" y="259"/>
      <point x="437.5" y="243.7"/>
      <point x="455.5" y="243.7" type="curve" smooth="yes"/>
      <point x="473.5" y="243.7"/>
      <point x="488.8" y="259"/>
      <point x="488.8" y="277" type="curve" smooth="yes"/>
      <point x="488.8" y="295"/>
      <point x="473.5" y="310.3"/>
      <point x="455.5" y="310.3" type="curve" smooth="yes"/>
      <point x="437.5" y="310.3"/>
      <point x="422.2" y="295"/>
    </contour>
    <contour>
      <point x="338" y="0" type="line"/>
      <point x="339" y="530" type="line"/>
      <point x="375" y="530" type="line"/>
      <point x="374" y="0" type="line"/>
    </contour>
    <contour>
      <point x="70" y="0" type="line"/>
      <point x="71" y="550" type="line"/>
      <point x="512" y="550" type="line"/>
      <point x="512" y="515" type="line"/>
      <point x="107" y="515" type="line"/>
      <point x="106" y="0" type="line"/>
    </contour>
  </outline>
</glyph>
<glyph name="tml_Nga" format="1">
  <advance width="667"/>
  <unicode hex="0B99"/>
  <outline>
    <contour>
      <point x="260" y="0" type="move" name="tml_virama"/>
    </contour>
    <contour>
      <point x="588" y="0" type="line"/>
      <point x="588" y="545" type="line"/>
      <point x="623" y="545" type="line"/>
      <point x="623" y="0" type="line"/>
    </contour>
    <contour>
      <point x="293" y="0" type="line"/>
      <point x="293" y="36" type="line"/>
      <point x="600" y="36" type="line"/>
      <point x="600" y="0" type="line"/>
    </contour>
    <contour>
      <point x="298" y="234" type="line"/>
      <point x="297" y="273"/>
      <point x="302" y="318"/>
      <point x="312" y="344" type="curve" smooth="yes"/>
      <point x="330" y="392"/>
      <point x="358" y="414"/>
      <point x="400" y="414" type="curve" smooth="yes"/>
      <point x="486" y="414"/>
      <point x="518" y="337"/>
      <point x="518" y="242" type="curve" smooth="yes"/>
      <point x="518" y="87"/>
      <point x="454" y="2"/>
      <point x="310" y="0" type="curve" smooth="yes"/>
      <point x="310" y="35" type="line" smooth="yes"/>
      <point x="451" y="39"/>
      <point x="484" y="136"/>
      <point x="484" y="238" type="curve" smooth="yes"/>
      <point x="484" y="325"/>
      <point x="457" y="380"/>
      <point x="399" y="380" type="curve" smooth="yes"/>
      <point x="363" y="380"/>
      <point x="339" y="343"/>
      <point x="328" y="309" type="curve" smooth="yes"/>
      <point x="318" y="280"/>
      <point x="324" y="267"/>
      <point x="324" y="234" type="curve"/>
    </contour>
    <contour>
      <point x="90" y="0" type="line"/>
      <point x="91" y="545" type="line"/>
      <point x="435" y="545" type="line"/>
      <point x="435" y="510" type="line"/>
      <point x="325" y="510" type="line"/>
      <point x="324" y="210" type="line"/>
      <point x="288" y="210" type="line"/>
      <point x="289" y="510" type="line"/>
      <point x="127" y="510" type="line"/>
      <point x="126" y="0" type="line"/>
    </contour>
  </outline>
</glyph>
<glyph name="tml_Nya" format="1">
  <advance width="774"/>
  <unicode hex="0B9E"/>
  <outline>
    <contour>
      <point x="152" y="248" type="curve" smooth="yes"/>
      <point x="152" y="419.119"/>
      <point x="231" y="545"/>
      <point x="404" y="545" type="curve" smooth="yes"/>
      <point x="403" y="510" type="line" smooth="yes"/>
      <point x="252" y="510"/>
      <point x="189" y="399.684"/>
      <point x="189" y="248" type="curve" smooth="yes"/>
      <point x="189" y="116"/>
      <point x="220" y="18"/>
      <point x="293" y="18" type="curve" smooth="yes"/>
      <point x="357" y="18"/>
      <point x="380" y="93"/>
      <point x="380" y="170" type="curve" smooth="yes"/>
      <point x="380" y="235"/>
      <point x="354" y="312"/>
      <point x="287" y="312" type="curve" smooth="yes"/>
      <point x="221" y="312"/>
      <point x="186" y="236"/>
      <point x="195" y="157" type="curve"/>
      <point x="172" y="183" type="line"/>
      <point x="173" y="287"/>
      <point x="222" y="347"/>
      <point x="287" y="347" type="curve" smooth="yes"/>
      <point x="369" y="347"/>
      <point x="416" y="265"/>
      <point x="416" y="170" type="curve" smooth="yes"/>
      <point x="416" y="65"/>
      <point x="378" y="-17"/>
      <point x="293" y="-17" type="curve" smooth="yes"/>
      <point x="197" y="-17"/>
      <point x="152" y="95"/>
    </contour>
    <contour>
      <point x="389" y="510" type="line"/>
      <point x="395" y="545" type="line"/>
      <point x="668" y="545" type="line"/>
      <point x="668" y="510" type="line"/>
      <point x="557.933" y="510" type="line"/>
      <point x="557" y="0" type="line"/>
      <point x="521" y="0" type="line"/>
      <point x="522" y="510" type="line"/>
    </contour>
    <contour>
      <point x="30.3232" y="242" type="curve" smooth="yes"/>
      <point x="29.9416" y="333.45"/>
      <point x="54.8389" y="428.994"/>
      <point x="112.5" y="531.003" type="curve"/>
      <point x="142.5" y="517" type="line"/>
      <point x="86.5469" y="421.079"/>
      <point x="63.706" y="332.504"/>
      <point x="63.75" y="244" type="curve" smooth="yes"/>
      <point x="63.8797" y="-36.1825"/>
      <point x="215.193" y="-135"/>
      <point x="422" y="-135" type="curve" smooth="yes"/>
      <point x="618.312" y="-135"/>
      <point x="708.5" y="14.5914"/>
      <point x="708.5" y="158" type="curve" smooth="yes"/>
      <point x="708.5" y="234.568"/>
      <point x="690.16" y="300"/>
      <point x="637.5" y="300" type="curve" smooth="yes"/>
      <point x="601.708" y="300"/>
      <point x="581.223" y="275.606"/>
      <point x="569.807" y="242" type="curve" smooth="yes"/>
      <point x="559.938" y="212.948"/>
      <point x="556.846" y="177.011"/>
      <point x="556.5" y="144" type="curve"/>
      <point x="529.5" y="164" type="line"/>
      <point x="528.957" y="203.35"/>
      <point x="534.125" y="236.097"/>
      <point x="543.863" y="262" type="curve" smooth="yes"/>
      <point x="561.724" y="309.509"/>
      <point x="594.954" y="334"/>
      <point x="636.5" y="334" type="curve" smooth="yes"/>
      <point x="716.91" y="334"/>
      <point x="742.5" y="247.129"/>
      <point x="742.5" y="162" type="curve" smooth="yes"/>
      <point x="742.5" y="-32.8534"/>
      <point x="624.453" y="-171"/>
      <point x="422" y="-171" type="curve" smooth="yes"/>
      <point x="269.289" y="-171"/>
      <point x="31.7214" y="-118.54"/>
    </contour>
  </outline>
</glyph>
<glyph name="tml_Tta" format="1">
  <advance width="643"/>
  <unicode hex="0B9F"/>
  <outline>
    <contour>
      <point x="340" y="0" type="move" name="tml_virama"/>
    </contour>
    <contour>
      <point x="70" y="0" type="line"/>
      <point x="70" y="545" type="line"/>
      <point x="105" y="545" type="line"/>
      <point x="105" y="34" type="line"/>
      <point x="593" y="34" type="line"/>
      <point x="593" y="0" type="line"/>
    </contour>
  </outline>
</glyph>
<glyph name="tml_Nna" format="1">
  <advance width="1115"/>
  <unicode hex="0BA3"/>
  <outline>
    <contour>
      <point x="100" y="248" type="curve" smooth="yes"/>
      <point x="100" y="422.489"/>
      <point x="178.258" y="550"/>
      <point x="351.652" y="550" type="curve" smooth="yes"/>
      <point x="351" y="514" type="line" smooth="yes"/>
      <point x="200.258" y="514"/>
      <point x="137" y="402.051"/>
      <point x="137" y="248" type="curve" smooth="yes"/>
      <point x="137" y="115.545"/>
      <point x="168.111" y="18"/>
      <point x="241" y="18" type="curve" smooth="yes"/>
      <point x="305.105" y="18"/>
      <point x="328" y="92.7539"/>
      <point x="328" y="170" type="curve" smooth="yes"/>
      <point x="328" y="234.735"/>
      <point x="301.929" y="312"/>
      <point x="235" y="312" type="curve" smooth="yes"/>
      <point x="169.426" y="312"/>
      <point x="134.049" y="235.656"/>
      <point x="143" y="157" type="curve"/>
      <point x="120" y="183" type="line"/>
      <point x="120.821" y="287.058"/>
      <point x="169.562" y="347"/>
      <point x="235" y="347" type="curve" smooth="yes"/>
      <point x="317.341" y="347"/>
      <point x="364" y="265.15"/>
      <point x="364" y="170" type="curve" smooth="yes"/>
      <point x="364" y="65.1846"/>
      <point x="326.442" y="-17"/>
      <point x="241" y="-17" type="curve" smooth="yes"/>
      <point x="144.863" y="-17"/>
      <point x="100" y="94.5254"/>
    </contour>
    <contour>
      <point x="351" y="514" type="curve" smooth="yes"/>
      <point x="351" y="550" type="line" smooth="yes"/>
      <point x="355.069" y="550.011"/>
      <point x="359.135" y="549.995"/>
      <point x="363" y="550" type="curve" smooth="yes"/>
      <point x="507.374" y="550.176"/>
      <point x="628" y="436.228"/>
      <point x="628" y="216" type="curve" smooth="yes"/>
      <point x="628" y="80.5615"/>
      <point x="590.315" y="-17"/>
      <point x="519" y="-17" type="curve" smooth="yes"/>
      <point x="449.09" y="-17"/>
      <point x="410" y="83.2109"/>
      <point x="410" y="221" type="curve" smooth="yes"/>
      <point x="410" y="467.781"/>
      <point x="523.721" y="545"/>
      <point x="650" y="545" type="curve"/>
      <point x="719.528" y="545"/>
      <point x="888" y="507.28"/>
      <point x="888" y="216" type="curve" smooth="yes"/>
      <point x="888" y="80.5615"/>
      <point x="850.315" y="-17"/>
      <point x="779" y="-17" type="curve" smooth="yes"/>
      <point x="713.579" y="-17"/>
      <point x="677" y="83.2109"/>
      <point x="677" y="221" type="curve" smooth="yes"/>
      <point x="677" y="467.781"/>
      <point x="811.095" y="545"/>
      <point x="960" y="545" type="curve" smooth="yes"/>
      <point x="960" y="511" type="line" smooth="yes"/>
      <point x="836.755" y="511"/>
      <point x="714" y="450.332"/>
      <point x="714" y="221" type="curve" smooth="yes"/>
      <point x="714" y="104.237"/>
      <point x="737.168" y="19"/>
      <point x="781" y="19" type="curve" smooth="yes"/>
      <point x="828.88" y="19"/>
      <point x="851" y="101.575"/>
      <point x="851" y="216" type="curve" smooth="yes"/>
      <point x="851" y="449.288"/>
      <point x="730.53" y="511"/>
      <point x="650" y="511" type="curve"/>
      <point x="548.298" y="511"/>
      <point x="447" y="450.332"/>
      <point x="447" y="221" type="curve" smooth="yes"/>
      <point x="447" y="104.237"/>
      <point x="472.589" y="19"/>
      <point x="521" y="19" type="curve" smooth="yes"/>
      <point x="568.88" y="19"/>
      <point x="591" y="101.575"/>
      <point x="591" y="216" type="curve" smooth="yes"/>
      <point x="591" y="406.839"/>
      <point x="493.123" y="514.591"/>
      <point x="364" y="514.503" type="curve" smooth="yes"/>
      <point x="359.872" y="514.5"/>
      <point x="355.476" y="514"/>
    </contour>
    <contour>
      <point x="925" y="511" type="line"/>
      <point x="937" y="545" type="line"/>
      <point x="1085" y="545" type="line"/>
      <point x="1085" y="511" type="line"/>
      <point x="985" y="511" type="line"/>
      <point x="985" y="1" type="line"/>
      <point x="949" y="1" type="line"/>
      <point x="949" y="511" type="line"/>
    </contour>
  </outline>
</glyph>
<glyph name="tml_Na" format="1">
  <advance width="498"/>
  <unicode hex="0BA8"/>
  <outline>
    <contour>
      <point x="220" y="0" type="move" name="tml_virama"/>
    </contour>
    <contour>
      <point x="348" y="-53.374" type="curve" smooth="yes"/>
      <point x="472.499" y="-52.0069"/>
      <point x="519.999" y="5.68639"/>
      <point x="519.871" y="131" type="curve" smooth="yes"/>
      <point x="519.79" y="198.744"/>
      <point x="498.928" y="265.89"/>
      <point x="445" y="265.753" type="curve" smooth="yes"/>
      <point x="398.355" y="265.623"/>
      <point x="385.142" y="226.749"/>
      <point x="386" y="154" type="curve" smooth="yes"/>
      <point x="386.194" y="136.644"/>
      <point x="386.005" y="117.368"/>
      <point x="386" y="98.7188" type="curve"/>
      <point x="286.58" y="91.2812" type="line"/>
      <point x="276.97" y="175.297"/>
      <point x="295.178" y="248.584"/>
      <point x="324.5" y="292.062" type="curve" smooth="yes"/>
      <point x="358.769" y="342.874"/>
      <point x="398.829" y="368.086"/>
      <point x="451" y="366.97" type="curve" smooth="yes"/>
      <point x="565.626" y="364.712"/>
      <point x="622.093" y="253.403"/>
      <point x="622.436" y="136" type="curve" smooth="yes"/>
      <point x="622.933" y="-61.8719"/>
      <point x="518.61" y="-163.369"/>
      <point x="347" y="-163.951" type="curve" smooth="yes"/>
      <point x="197.012" y="-164.493"/>
      <point x="209.291" y="-240.048"/>
      <point x="209" y="-291" type="curve"/>
      <point x="107" y="-291" type="line"/>
      <point x="107.761" y="-188.815"/>
      <point x="110.403" y="-55.9832"/>
    </contour>
    <contour>
      <point x="58" y="0" type="line"/>
      <point x="58" y="551" type="line"/>
      <point x="487" y="551" type="line"/>
      <point x="487" y="456" type="line"/>
      <point x="387" y="456" type="line"/>
      <point x="387" y="0" type="line"/>
      <point x="282" y="0" type="line"/>
      <point x="282" y="456" type="line"/>
      <point x="163" y="456" type="line"/>
      <point x="163" y="0" type="line"/>
    </contour>
  </outline>
</glyph>
<glyph name="tml_Nnna" format="1">
  <advance width="835"/>
  <unicode hex="0BA9"/>
  <outline>
    <contour>
      <point x="404" y="0" type="move" name="tml_virama"/>
    </contour>
    <contour>
      <point x="40" y="248" type="curve" smooth="yes"/>
      <point x="40" y="422.489"/>
      <point x="118.258" y="550"/>
      <point x="291.652" y="550" type="curve" smooth="yes"/>
      <point x="291" y="514" type="line" smooth="yes"/>
      <point x="140.258" y="514"/>
      <point x="77" y="402.051"/>
      <point x="77" y="248" type="curve" smooth="yes"/>
      <point x="77" y="115.545"/>
      <point x="108.111" y="18"/>
      <point x="181" y="18" type="curve" smooth="yes"/>
      <point x="245.105" y="18"/>
      <point x="268" y="92.7539"/>
      <point x="268" y="170" type="curve" smooth="yes"/>
      <point x="268" y="234.735"/>
      <point x="241.929" y="312"/>
      <point x="175" y="312" type="curve" smooth="yes"/>
      <point x="109.426" y="312"/>
      <point x="74.0488" y="235.656"/>
      <point x="83" y="157" type="curve"/>
      <point x="60" y="183" type="line"/>
      <point x="60.8213" y="287.058"/>
      <point x="109.562" y="347"/>
      <point x="175" y="347" type="curve" smooth="yes"/>
      <point x="257.341" y="347"/>
      <point x="304" y="265.15"/>
      <point x="304" y="170" type="curve" smooth="yes"/>
      <point x="304" y="65.1846"/>
      <point x="266.442" y="-17"/>
      <point x="181" y="-17" type="curve" smooth="yes"/>
      <point x="84.8633" y="-17"/>
      <point x="40" y="94.5254"/>
    </contour>
    <contour>
      <point x="291" y="514" type="curve" smooth="yes"/>
      <point x="291" y="550" type="line" smooth="yes"/>
      <point x="295.069" y="550.011"/>
      <point x="299.135" y="549.995"/>
      <point x="303" y="550" type="curve" smooth="yes"/>
      <point x="451.732" y="550.176"/>
      <point x="576" y="436.228"/>
      <point x="576" y="216" type="curve" smooth="yes"/>
      <point x="576" y="80.5615"/>
      <point x="538.315" y="-17"/>
      <point x="467" y="-17" type="curve" smooth="yes"/>
      <point x="397.09" y="-17"/>
      <point x="358" y="83.2109"/>
      <point x="358" y="221" type="curve" smooth="yes"/>
      <point x="358" y="467.781"/>
      <point x="501.098" y="545"/>
      <point x="660" y="545" type="curve" smooth="yes"/>
      <point x="660" y="511" type="line" smooth="yes"/>
      <point x="527.237" y="511"/>
      <point x="395" y="450.332"/>
      <point x="395" y="221" type="curve" smooth="yes"/>
      <point x="395" y="104.237"/>
      <point x="420.589" y="19"/>
      <point x="469" y="19" type="curve" smooth="yes"/>
      <point x="516.88" y="19"/>
      <point x="539" y="101.575"/>
      <point x="539" y="216" type="curve" smooth="yes"/>
      <point x="539" y="406.839"/>
      <point x="437.673" y="514.591"/>
      <point x="304" y="514.503" type="curve" smooth="yes"/>
      <point x="299.872" y="514.5"/>
      <point x="295.476" y="514"/>
    </contour>
    <contour>
      <point x="645" y="511" type="line"/>
      <point x="657" y="545" type="line"/>
      <point x="805" y="545" type="line"/>
      <point x="805" y="511" type="line"/>
      <point x="705" y="511" type="line"/>
      <point x="705" y="1" type="line"/>
      <point x="669" y="1" type="line"/>
      <point x="669" y="511" type="line"/>
    </contour>
  </outline>
</glyph>
<glyph name="tml_Pa" format="1">
  <advance width="448"/>
  <unicode hex="0BAA"/>
  <outline>
    <contour>
      <point x="220" y="0" type="move" name="tml_virama"/>
    </contour>
    <contour>
      <point x="58" y="0" type="line"/>
      <point x="58" y="545" type="line"/>
      <point x="94" y="545" type="line"/>
      <point x="94" y="34" type="line"/>
      <point x="352" y="34" type="line"/>
      <point x="352" y="545" type="line"/>
      <point x="388" y="545" type="line"/>
      <point x="388" y="0" type="line"/>
    </contour>
  </outline>
</glyph>
<glyph name="tml_Ma" format="1">
  <advance width="572"/>
  <unicode hex="0BAE"/>
  <outline>
    <contour>
      <point x="253" y="-10" type="move" name="tml_virama"/>
    </contour>
    <contour>
      <point x="234" y="434" type="line" smooth="yes"/>
      <point x="234" y="520.643"/>
      <point x="272.251" y="560.556"/>
      <point x="335" y="561" type="curve" smooth="yes"/>
      <point x="450.555" y="561.844"/>
      <point x="501.127" y="412.88"/>
      <point x="502" y="251" type="curve" smooth="yes"/>
      <point x="502.86" y="78.6221"/>
      <point x="462.564" y="0.308594"/>
      <point x="378" y="0" type="curve"/>
      <point x="375" y="35" type="line"/>
      <point x="444.204" y="33.5996"/>
      <point x="465.09" y="123.909"/>
      <point x="465" y="251" type="curve" smooth="yes"/>
      <point x="464.891" y="390.387"/>
      <point x="427.82" y="525"/>
      <point x="336" y="525" type="curve" smooth="yes"/>
      <point x="293.233" y="525"/>
      <point x="269" y="493.456"/>
      <point x="269" y="424" type="curve" smooth="yes"/>
      <point x="271" y="6" type="line"/>
      <point x="236" y="7" type="line" smooth="yes"/>
    </contour>
    <contour>
      <point x="59" y="0" type="curve"/>
      <point x="59" y="545" type="line"/>
      <point x="94" y="545" type="line"/>
      <point x="94" y="35" type="line"/>
      <point x="382" y="35" type="line"/>
      <point x="382" y="0" type="line"/>
      <point x="274.334" y="0"/>
      <point x="166.666" y="0"/>
    </contour>
  </outline>
</glyph>
<glyph name="tml_Ya" format="1">
  <advance width="549"/>
  <unicode hex="0BAF"/>
  <outline>
    <contour>
      <point x="296" y="0" type="move" name="tml_virama"/>
    </contour>
    <contour>
      <point x="11" y="157" type="curve" smooth="yes"/>
      <point x="11" y="545" type="line" smooth="yes"/>
      <point x="44" y="545" type="line"/>
      <point x="44" y="151" type="line" smooth="yes"/>
      <point x="44" y="44.1758"/>
      <point x="78.4121" y="17"/>
      <point x="134" y="17" type="curve"/>
      <point x="209.278" y="17"/>
      <point x="226.129" y="83.7263"/>
      <point x="226" y="192" type="curve" smooth="yes"/>
      <point x="258.749" y="208" type="line"/>
      <point x="258.952" y="58.6257"/>
      <point x="221.571" y="-15.6966"/>
      <point x="134" y="-16" type="curve" smooth="yes"/>
      <point x="35.416" y="-16.4287"/>
      <point x="11" y="53.2207"/>
    </contour>
    <contour>
      <point x="226" y="0" type="curve"/>
      <point x="226" y="545" type="line"/>
      <point x="262" y="545" type="line"/>
      <point x="262" y="34" type="line"/>
      <point x="470" y="34" type="line"/>
      <point x="470" y="545" type="line"/>
      <point x="506" y="545" type="line"/>
      <point x="506" y="0" type="line"/>
      <point x="412.667" y="0"/>
      <point x="319.333" y="0"/>
    </contour>
  </outline>
</glyph>
<glyph name="tml_Lla" format="1">
  <advance width="892"/>
  <unicode hex="0BB3"/>
  <outline>
    <contour>
      <point x="449" y="0" type="move" name="tml_virama"/>
    </contour>
    <contour>
      <point x="93" y="248" type="curve" smooth="yes"/>
      <point x="93" y="426"/>
      <point x="154" y="555"/>
      <point x="287" y="555" type="curve" smooth="yes"/>
      <point x="409" y="555"/>
      <point x="462" y="434"/>
      <point x="461" y="269" type="curve"/>
      <point x="431" y="283" type="line" smooth="yes"/>
      <point x="431" y="420"/>
      <point x="381" y="520"/>
      <point x="286" y="520" type="curve" smooth="yes"/>
      <point x="176" y="520"/>
      <point x="130" y="406"/>
      <point x="130" y="248" type="curve" smooth="yes"/>
      <point x="130" y="116"/>
      <point x="161" y="18"/>
      <point x="234" y="18" type="curve" smooth="yes"/>
      <point x="298" y="18"/>
      <point x="321" y="93"/>
      <point x="321" y="170" type="curve" smooth="yes"/>
      <point x="321" y="235"/>
      <point x="295" y="312"/>
      <point x="228" y="312" type="curve" smooth="yes"/>
      <point x="162" y="312"/>
      <point x="127" y="236"/>
      <point x="136" y="157" type="curve"/>
      <point x="113" y="183" type="line"/>
      <point x="114" y="287"/>
      <point x="163" y="347"/>
      <point x="228" y="347" type="curve" smooth="yes"/>
      <point x="310" y="347"/>
      <point x="357" y="265"/>
      <point x="357" y="170" type="curve" smooth="yes"/>
      <point x="357" y="65"/>
      <point x="319" y="-17"/>
      <point x="234" y="-17" type="curve" smooth="yes"/>
      <point x="138" y="-17"/>
      <point x="93" y="95"/>
    </contour>
    <contour>
      <point x="430" y="0" type="line"/>
      <point x="431" y="545" type="line"/>
      <point x="832" y="545" type="line"/>
      <point x="832" y="511" type="line"/>
      <point x="712" y="511" type="line"/>
      <point x="711" y="0" type="line"/>
      <point x="675" y="0" type="line"/>
      <point x="676" y="511" type="line"/>
      <point x="467" y="511" type="line"/>
      <point x="466" y="0" type="line"/>
    </contour>
  </outline>
</glyph>
<glyph name="tml_Llla" format="1">
  <advance width="543"/>
  <unicode hex="0BB4"/>
  <outline>
    <contour>
      <point x="254" y="0" type="move" name="tml_virama"/>
    </contour>
    <contour>
      <point x="80" y="-104" type="curve"/>
      <point x="111" y="-104" type="line"/>
      <point x="111" y="-192"/>
      <point x="158" y="-226"/>
      <point x="237" y="-226" type="curve" smooth="yes"/>
      <point x="353" y="-226"/>
      <point x="356" y="-107"/>
      <point x="409" y="-107" type="curve" smooth="yes"/>
      <point x="442" y="-127" type="line"/>
      <point x="373" y="-127"/>
      <point x="375" y="-260"/>
      <point x="237" y="-260" type="curve" smooth="yes"/>
      <point x="153" y="-260"/>
      <point x="80" y="-223"/>
    </contour>
    <contour>
      <point x="237" y="13" type="line"/>
      <point x="272" y="13" type="line"/>
      <point x="272" y="-13" type="line"/>
      <point x="273" y="-73"/>
      <point x="296" y="-92"/>
      <point x="391" y="-92" type="curve"/>
      <point x="459" y="-92" type="line"/>
      <point x="460" y="-92" type="line"/>
      <point x="460" y="-127" type="line"/>
      <point x="366" y="-127" type="line"/>
      <point x="271" y="-126"/>
      <point x="237" y="-92"/>
      <point x="237" y="-13" type="curve"/>
    </contour>
    <contour>
      <point x="235" y="434" type="line" smooth="yes"/>
      <point x="235" y="521"/>
      <point x="273" y="560"/>
      <point x="336" y="561" type="curve" smooth="yes"/>
      <point x="452" y="562"/>
      <point x="502" y="413"/>
      <point x="503" y="251" type="curve" smooth="yes"/>
      <point x="504" y="79"/>
      <point x="464" y="0"/>
      <point x="379" y="0" type="curve"/>
      <point x="376" y="35" type="line"/>
      <point x="445" y="34"/>
      <point x="466" y="124"/>
      <point x="466" y="251" type="curve" smooth="yes"/>
      <point x="466" y="391"/>
      <point x="429" y="526"/>
      <point x="337" y="526" type="curve" smooth="yes"/>
      <point x="294" y="526"/>
      <point x="270" y="494"/>
      <point x="270" y="424" type="curve" smooth="yes"/>
      <point x="272" y="6" type="line"/>
      <point x="237" y="6" type="line" smooth="yes"/>
    </contour>
    <contour>
      <point x="60" y="0" type="curve"/>
      <point x="60" y="545" type="line"/>
      <point x="95" y="545" type="line"/>
      <point x="95" y="35" type="line"/>
      <point x="383" y="35" type="line"/>
      <point x="383" y="0" type="line"/>
      <point x="275" y="0"/>
      <point x="168" y="0"/>
    </contour>
  </outline>
</glyph>
<glyph name="tml_Va" format="1">
  <advance width="672"/>
  <unicode hex="0BB5"/>
  <outline>
    <contour>
      <point x="447" y="0" type="move" name="tml_virama"/>
    </contour>
    <contour>
      <point x="93" y="248" type="curve" smooth="yes"/>
      <point x="93" y="425.975"/>
      <point x="153.221" y="555.006"/>
      <point x="286.652" y="555.006" type="curve" smooth="yes"/>
      <point x="417.738" y="555.006"/>
      <point x="485.044" y="432.98"/>
      <point x="485.044" y="259.813" type="curve" smooth="yes"/>
      <point x="485.044" y="254.234"/>
      <point x="485.029" y="248.63"/>
      <point x="485" y="243" type="curve"/>
      <point x="448" y="257" type="line" smooth="yes"/>
      <point x="448" y="409"/>
      <point x="391.855" y="520"/>
      <point x="286" y="520" type="curve" smooth="yes"/>
      <point x="176.113" y="520"/>
      <point x="130" y="405.525"/>
      <point x="130" y="248" type="curve" smooth="yes"/>
      <point x="130" y="115.545"/>
      <point x="161.111" y="18"/>
      <point x="234" y="18" type="curve" smooth="yes"/>
      <point x="298.105" y="18"/>
      <point x="321" y="92.7541"/>
      <point x="321" y="170" type="curve" smooth="yes"/>
      <point x="321" y="234.735"/>
      <point x="294.929" y="312"/>
      <point x="228" y="312" type="curve" smooth="yes"/>
      <point x="162.426" y="312"/>
      <point x="127.049" y="235.657"/>
      <point x="136" y="157" type="curve"/>
      <point x="113" y="183" type="line"/>
      <point x="113.821" y="287.058"/>
      <point x="162.561" y="347"/>
      <point x="228" y="347" type="curve" smooth="yes"/>
      <point x="310.34" y="347"/>
      <point x="357" y="265.15"/>
      <point x="357" y="170" type="curve" smooth="yes"/>
      <point x="357" y="65.1847"/>
      <point x="319.443" y="-17"/>
      <point x="234" y="-17" type="curve" smooth="yes"/>
      <point x="137.864" y="-17"/>
      <point x="93" y="94.5251"/>
    </contour>
    <contour>
      <point x="402" y="0" type="line"/>
      <point x="402" y="33" type="line"/>
      <point x="435.206" y="112.027"/>
      <point x="448" y="198.248"/>
      <point x="448" y="261" type="curve" smooth="yes"/>
      <point x="485" y="251" type="line" smooth="yes"/>
      <point x="484.596" y="202.004"/>
      <point x="475.533" y="121"/>
      <point x="444" y="35" type="curve"/>
      <point x="595" y="35" type="line"/>
      <point x="595" y="545" type="line"/>
      <point x="631" y="545" type="line"/>
      <point x="631" y="0" type="line"/>
    </contour>
  </outline>
</glyph>
<glyph name="tml_Ssa" format="1">
  <advance width="834"/>
  <unicode hex="0BB7"/>
  <outline>
    <contour>
      <point x="422" y="0" type="move" name="tml_virama"/>
    </contour>
    <contour>
      <point x="38" y="248" type="curve" smooth="yes"/>
      <point x="38" y="425.975"/>
      <point x="98.2217" y="555.006"/>
      <point x="231.652" y="555.006" type="curve" smooth="yes"/>
      <point x="362.737" y="555.006"/>
      <point x="430.044" y="432.98"/>
      <point x="430.044" y="259.813" type="curve" smooth="yes"/>
      <point x="430.044" y="254.234"/>
      <point x="430.029" y="248.63"/>
      <point x="430" y="243" type="curve"/>
      <point x="393" y="257" type="line" smooth="yes"/>
      <point x="393" y="409"/>
      <point x="336.854" y="520"/>
      <point x="231" y="520" type="curve" smooth="yes"/>
      <point x="121.113" y="520"/>
      <point x="75" y="405.525"/>
      <point x="75" y="248" type="curve" smooth="yes"/>
      <point x="75" y="114.393"/>
      <point x="106.111" y="16"/>
      <point x="179" y="16" type="curve" smooth="yes"/>
      <point x="243.105" y="16"/>
      <point x="266" y="91.7375"/>
      <point x="266" y="170" type="curve" smooth="yes"/>
      <point x="266" y="235.191"/>
      <point x="239.929" y="313"/>
      <point x="173" y="313" type="curve" smooth="yes"/>
      <point x="107.426" y="313"/>
      <point x="72.0488" y="236.164"/>
      <point x="81" y="157" type="curve"/>
      <point x="57" y="187" type="line"/>
      <point x="57.8284" y="288.52"/>
      <point x="106.992" y="347"/>
      <point x="173" y="347" type="curve" smooth="yes"/>
      <point x="255.341" y="347"/>
      <point x="302" y="265.15"/>
      <point x="302" y="170" type="curve" smooth="yes"/>
      <point x="302" y="65.1846"/>
      <point x="264.442" y="-17"/>
      <point x="179" y="-17" type="curve" smooth="yes"/>
      <point x="82.8633" y="-17"/>
      <point x="38" y="94.5254"/>
    </contour>
    <contour>
      <point x="347" y="0" type="line"/>
      <point x="347" y="31" type="line"/>
      <point x="380.206" y="110.721"/>
      <point x="393" y="197.698"/>
      <point x="393" y="261" type="curve" smooth="yes"/>
      <point x="430" y="251" type="line" smooth="yes"/>
      <point x="429.597" y="201.55"/>
      <point x="420.533" y="119.796"/>
      <point x="389" y="33" type="curve"/>
    </contour>
    <contour>
      <point x="468" y="421" type="curve" smooth="yes"/>
      <point x="468" y="482"/>
      <point x="492.307" y="555.753"/>
      <point x="557" y="556" type="curve" smooth="yes"/>
      <point x="632.329" y="556.288"/>
      <point x="644.477" y="481.773"/>
      <point x="644" y="430" type="curve"/>
      <point x="608" y="430" type="line"/>
      <point x="608.51" y="496.983"/>
      <point x="584.734" y="521.512"/>
      <point x="558" y="522" type="curve" smooth="yes"/>
      <point x="519.684" y="522.699"/>
      <point x="502.819" y="464.971"/>
      <point x="503" y="417" type="curve" smooth="yes"/>
      <point x="503.342" y="326.33"/>
      <point x="551.432" y="260.442"/>
      <point x="618" y="261" type="curve" smooth="yes"/>
      <point x="703.704" y="261.659"/>
      <point x="738" y="323.809"/>
      <point x="738" y="405" type="curve" smooth="yes"/>
      <point x="764" y="395" type="line" smooth="yes"/>
      <point x="764" y="309.215"/>
      <point x="719.01" y="226.009"/>
      <point x="618" y="226" type="curve" smooth="yes"/>
      <point x="553.066" y="225.994"/>
      <point x="468" y="283.315"/>
    </contour>
    <contour>
      <point x="608" y="-152" type="line"/>
      <point x="608" y="434" type="line"/>
      <point x="644" y="434" type="line"/>
      <point x="644" y="-152" type="line"/>
    </contour>
    <contour>
      <point x="347" y="-1" type="line"/>
      <point x="347" y="31" type="line"/>
      <point x="392" y="33" type="line"/>
      <point x="738" y="33" type="line"/>
      <point x="738" y="455" type="line"/>
      <point x="774" y="455" type="line"/>
      <point x="774" y="-1" type="line"/>
    </contour>
  </outline>
</glyph>
<glyph name="tml_MatraAa" format="1">
  <advance width="485"/>
  <unicode hex="0BBE"/>
  <outline>
    <contour>
      <point x="60" y="0" type="line"/>
      <point x="61" y="545" type="line"/>
      <point x="465" y="545" type="line"/>
      <point x="465" y="510" type="line"/>
      <point x="354.933" y="510" type="line"/>
      <point x="354" y="0" type="line"/>
      <point x="318" y="0" type="line"/>
      <point x="319" y="510" type="line"/>
      <point x="97" y="510" type="line"/>
      <point x="96" y="0" type="line"/>
    </contour>
  </outline>
</glyph>
<glyph name="tml_MatraE" format="1">
  <advance width="458"/>
  <unicode hex="0BC6"/>
  <outline>
    <contour>
      <point x="39" y="248" type="curve" smooth="yes"/>
      <point x="39" y="426"/>
      <point x="100" y="555"/>
      <point x="233" y="555" type="curve" smooth="yes"/>
      <point x="422.226" y="555"/>
      <point x="413" y="371"/>
      <point x="413" y="371" type="curve"/>
      <point x="412" y="0" type="line"/>
      <point x="376" y="0" type="line"/>
      <point x="377" y="353" type="line"/>
      <point x="377" y="490"/>
      <point x="307" y="520"/>
      <point x="232" y="520" type="curve" smooth="yes"/>
      <point x="122" y="520"/>
      <point x="76" y="406"/>
      <point x="76" y="248" type="curve" smooth="yes"/>
      <point x="76" y="116"/>
      <point x="107" y="18"/>
      <point x="180" y="18" type="curve" smooth="yes"/>
      <point x="244" y="18"/>
      <point x="267" y="93"/>
      <point x="267" y="170" type="curve" smooth="yes"/>
      <point x="267" y="235"/>
      <point x="241" y="312"/>
      <point x="174" y="312" type="curve" smooth="yes"/>
      <point x="108" y="312"/>
      <point x="73" y="236"/>
      <point x="82" y="157" type="curve"/>
      <point x="59" y="183" type="line"/>
      <point x="60" y="287"/>
      <point x="109" y="347"/>
      <point x="174" y="347" type="curve" smooth="yes"/>
      <point x="256" y="347"/>
      <point x="303" y="265"/>
      <point x="303" y="170" type="curve" smooth="yes"/>
      <point x="303" y="65"/>
      <point x="265" y="-17"/>
      <point x="180" y="-17" type="curve" smooth="yes"/>
      <point x="84" y="-17"/>
      <point x="39" y="95"/>
    </contour>
  </outline>
</glyph>
<glyph name="tml_Virama" format="1">
  <advance width="0"/>
  <unicode hex="0BCD"/>
  <outline>
    <contour>
      <point x="0" y="-0.299805" type="move" name="_tml_virama"/>
    </contour>
    <contour>
      <point x="-31.2002" y="682" type="curve" smooth="yes"/>
      <point x="-31.2002" y="698.9"/>
      <point x="-16.9001" y="713.2"/>
      <point x="0" y="713.2" type="curve" smooth="yes"/>
      <point x="16.9001" y="713.2"/>
      <point x="31.2002" y="698.9"/>
      <point x="31.2002" y="682" type="curve" smooth="yes"/>
      <point x="31.2002" y="665.1"/>
      <point x="16.9001" y="650.8"/>
      <point x="0" y="650.8" type="curve" smooth="yes"/>
      <point x="-16.9001" y="650.8"/>
      <point x="-31.2002" y="665.1"/>
    </contour>
  </outline>
</glyph>
<glyph name="tml_Day" format="1">
  <advance width="541"/>
  <unicode hex="0BF3"/>
  <outline>
    <contour>
      <point x="395" y="0" type="move" name="tml_virama"/>
    </contour>
    <contour>
      <point x="41" y="248" type="curve" smooth="yes"/>
      <point x="41" y="425.975"/>
      <point x="101.222" y="555.006"/>
      <point x="234.652" y="555.006" type="curve" smooth="yes"/>
      <point x="365.737" y="555.006"/>
      <point x="433.044" y="432.98"/>
      <point x="433.044" y="259.813" type="curve" smooth="yes"/>
      <point x="433.044" y="254.234"/>
      <point x="433.029" y="248.63"/>
      <point x="433" y="243" type="curve"/>
      <point x="396" y="257" type="line" smooth="yes"/>
      <point x="396" y="409"/>
      <point x="339.854" y="520"/>
      <point x="234" y="520" type="curve" smooth="yes"/>
      <point x="124.113" y="520"/>
      <point x="78" y="405.525"/>
      <point x="78" y="248" type="curve" smooth="yes"/>
      <point x="78" y="115.545"/>
      <point x="109.111" y="18"/>
      <point x="182" y="18" type="curve" smooth="yes"/>
      <point x="246.105" y="18"/>
      <point x="269" y="92.7539"/>
      <point x="269" y="170" type="curve" smooth="yes"/>
      <point x="269" y="234.735"/>
      <point x="242.929" y="312"/>
      <point x="176" y="312" type="curve" smooth="yes"/>
      <point x="110.426" y="312"/>
      <point x="75.0488" y="235.656"/>
      <point x="84" y="157" type="curve"/>
      <point x="61" y="183" type="line"/>
      <point x="61.8213" y="287.058"/>
      <point x="110.562" y="347"/>
      <point x="176" y="347" type="curve" smooth="yes"/>
      <point x="258.341" y="347"/>
      <point x="305" y="265.15"/>
      <point x="305" y="170" type="curve" smooth="yes"/>
      <point x="305" y="65.1846"/>
      <point x="267.442" y="-17"/>
      <point x="182" y="-17" type="curve" smooth="yes"/>
      <point x="85.8633" y="-17"/>
      <point x="41" y="94.5254"/>
    </contour>
    <contour>
      <point x="350" y="0" type="line"/>
      <point x="350" y="33" type="line"/>
      <point x="383.206" y="112.027"/>
      <point x="396" y="198.248"/>
      <point x="396" y="261" type="curve" smooth="yes"/>
      <point x="433" y="251" type="line" smooth="yes"/>
      <point x="432.597" y="202.004"/>
      <point x="423.533" y="121"/>
      <point x="392" y="35" type="curve"/>
      <point x="521" y="35" type="line"/>
      <point x="521" y="0" type="line"/>
    </contour>
  </outline>
</glyph>
<glyph name="dottedcircle" format="1">
  <advance width="761"/>
  <unicode hex="25CC"/>
  <outline>
    <contour>
      <point x="348" y="501" type="curve" smooth="yes"/>
      <point x="348" y="509.667"/>
      <point x="351" y="517.167"/>
      <point x="357" y="523.5" type="curve" smooth="yes"/>
      <point x="363" y="529.833"/>
      <point x="370.667" y="533"/>
      <point x="380" y="533" type="curve" smooth="yes"/>
      <point x="389.333" y="533"/>
      <point x="397" y="529.833"/>
      <point x="403" y="523.5" type="curve" smooth="yes"/>
      <point x="409" y="517.167"/>
      <point x="412" y="509.667"/>
      <point x="412" y="501" type="curve" smooth="yes"/>
      <point x="412" y="491.667"/>
      <point x="409" y="484.167"/>
      <point x="403" y="478.5" type="curve" smooth="yes"/>
      <point x="397" y="472.833"/>
      <point x="389.333" y="470"/>
      <point x="380" y="470" type="curve" smooth="yes"/>
      <point x="370.667" y="470"/>
      <point x="363" y="472.833"/>
      <point x="357" y="478.5" type="curve" smooth="yes"/>
      <point x="351" y="484.167"/>
      <point x="348" y="491.667"/>
    </contour>
    <contour>
      <point x="251" y="484" type="curve" smooth="yes"/>
      <point x="251" y="493.333"/>
      <point x="254.333" y="501"/>
      <point x="261" y="507" type="curve" smooth="yes"/>
      <point x="267.667" y="513"/>
      <point x="275.333" y="516"/>
      <point x="284" y="516" type="curve" smooth="yes"/>
      <point x="293.333" y="516"/>
      <point x="300.833" y="513"/>
      <point x="306.5" y="507" type="curve" smooth="yes"/>
      <point x="312.167" y="501"/>
      <point x="315" y="493.333"/>
      <point x="315" y="484" type="curve" smooth="yes"/>
      <point x="315" y="474.667"/>
      <point x="312.167" y="467"/>
      <point x="306.5" y="461" type="curve" smooth="yes"/>
      <point x="300.833" y="455"/>
      <point x="293.333" y="452"/>
      <point x="284" y="452" type="curve" smooth="yes"/>
      <point x="275.333" y="452"/>
      <point x="267.667" y="455"/>
      <point x="261" y="461" type="curve" smooth="yes"/>
      <point x="254.333" y="467"/>
      <point x="251" y="474.667"/>
    </contour>
    <contour>
      <point x="447" y="484" type="curve" smooth="yes"/>
      <point x="447" y="493.333"/>
      <point x="449.833" y="501"/>
      <point x="455.5" y="507" type="curve" smooth="yes"/>
      <point x="461.167" y="513"/>
      <point x="468.667" y="516"/>
      <point x="478" y="516" type="curve" smooth="yes"/>
      <point x="488" y="516"/>
      <point x="496" y="513"/>
      <point x="502" y="507" type="curve" smooth="yes"/>
      <point x="508" y="501"/>
      <point x="511" y="493.333"/>
      <point x="511" y="484" type="curve" smooth="yes"/>
      <point x="511" y="474.667"/>
      <point x="508" y="467"/>
      <point x="502" y="461" type="curve" smooth="yes"/>
      <point x="496" y="455"/>
      <point x="488" y="452"/>
      <point x="478" y="452" type="curve" smooth="yes"/>
      <point x="468.667" y="452"/>
      <point x="461.167" y="455"/>
      <point x="455.5" y="461" type="curve" smooth="yes"/>
      <point x="449.833" y="467"/>
      <point x="447" y="474.667"/>
    </contour>
    <contour>
      <point x="167" y="429" type="curve" smooth="yes"/>
      <point x="167" y="438.333"/>
      <point x="170.167" y="446.167"/>
      <point x="176.5" y="452.5" type="curve" smooth="yes"/>
      <point x="182.833" y="458.833"/>
      <point x="190.667" y="462"/>
      <point x="200" y="462" type="curve" smooth="yes"/>
      <point x="209.333" y="462"/>
      <point x="216.833" y="459"/>
      <point x="222.5" y="453" type="curve" smooth="yes"/>
      <point x="228.167" y="447"/>
      <point x="231" y="439"/>
      <point x="231" y="429" type="curve" smooth="yes"/>
      <point x="231" y="419"/>
      <point x="228.167" y="411.167"/>
      <point x="222.5" y="405.5" type="curve" smooth="yes"/>
      <point x="216.833" y="399.833"/>
      <point x="209.333" y="397"/>
      <point x="200" y="397" type="curve" smooth="yes"/>
      <point x="190.667" y="397"/>
      <point x="182.833" y="400"/>
      <point x="176.5" y="406" type="curve" smooth="yes"/>
      <point x="170.167" y="412"/>
      <point x="167" y="419.667"/>
    </contour>
    <contour>
      <point x="530" y="429" type="curve" smooth="yes"/>
      <point x="530" y="439"/>
      <point x="533" y="447"/>
      <point x="539" y="453" type="curve" smooth="yes"/>
      <point x="545" y="459"/>
      <point x="552.333" y="462"/>
      <point x="561" y="462" type="curve" smooth="yes"/>
      <point x="571" y="462"/>
      <point x="579.167" y="458.833"/>
      <point x="585.5" y="452.5" type="curve" smooth="yes"/>
      <point x="591.833" y="446.167"/>
      <point x="595" y="438.333"/>
      <point x="595" y="429" type="curve" smooth="yes"/>
      <point x="595" y="419.667"/>
      <point x="591.833" y="412"/>
      <point x="585.5" y="406" type="curve" smooth="yes"/>
      <point x="579.167" y="400"/>
      <point x="571" y="397"/>
      <point x="561" y="397" type="curve" smooth="yes"/>
      <point x="552.333" y="397"/>
      <point x="545" y="399.833"/>
      <point x="539" y="405.5" type="curve" smooth="yes"/>
      <point x="533" y="411.167"/>
      <point x="530" y="419"/>
    </contour>
    <contour>
      <point x="116" y="343" type="curve" smooth="yes"/>
      <point x="116" y="352.333"/>
      <point x="119" y="360"/>
      <point x="125" y="366" type="curve" smooth="yes"/>
      <point x="131" y="372"/>
      <point x="138.667" y="375"/>
      <point x="148" y="375" type="curve" smooth="yes"/>
      <point x="158" y="375"/>
      <point x="165.667" y="372"/>
      <point x="171" y="366" type="curve" smooth="yes"/>
      <point x="176.333" y="360"/>
      <point x="179" y="352.333"/>
      <point x="179" y="343" type="curve" smooth="yes"/>
      <point x="179" y="333.667"/>
      <point x="176.333" y="326"/>
      <point x="171" y="320" type="curve" smooth="yes"/>
      <point x="165.667" y="314"/>
      <point x="158" y="311"/>
      <point x="148" y="311" type="curve" smooth="yes"/>
      <point x="138.667" y="311"/>
      <point x="131" y="314"/>
      <point x="125" y="320" type="curve" smooth="yes"/>
      <point x="119" y="326"/>
      <point x="116" y="333.667"/>
    </contour>
    <contour>
      <point x="583" y="343" type="curve" smooth="yes"/>
      <point x="583" y="352.333"/>
      <point x="585.833" y="360"/>
      <point x="591.5" y="366" type="curve" smooth="yes"/>
      <point x="597.167" y="372"/>
      <point x="604.667" y="375"/>
      <point x="614" y="375" type="curve" smooth="yes"/>
      <point x="623.333" y="375"/>
      <point x="631" y="372"/>
      <point x="637" y="366" type="curve" smooth="yes"/>
      <point x="643" y="360"/>
      <point x="646" y="352.333"/>
      <point x="646" y="343" type="curve" smooth="yes"/>
      <point x="646" y="333.667"/>
      <point x="643" y="326"/>
      <point x="637" y="320" type="curve" smooth="yes"/>
      <point x="631" y="314"/>
      <point x="623.333" y="311"/>
      <point x="614" y="311" type="curve" smooth="yes"/>
      <point x="604.667" y="311"/>
      <point x="597.167" y="314"/>
      <point x="591.5" y="320" type="curve" smooth="yes"/>
      <point x="585.833" y="326"/>
      <point x="583" y="333.667"/>
    </contour>
    <contour>
      <point x="100" y="249" type="curve" smooth="yes"/>
      <point x="100" y="258.333"/>
      <point x="103.167" y="266.167"/>
      <point x="109.5" y="272.5" type="curve" smooth="yes"/>
      <point x="115.833" y="278.833"/>
      <point x="123.333" y="282"/>
      <point x="132" y="282" type="curve" smooth="yes"/>
      <point x="141.333" y="282"/>
      <point x="149" y="278.833"/>
      <point x="155" y="272.5" type="curve" smooth="yes"/>
      <point x="161" y="266.167"/>
      <point x="164" y="258.333"/>
      <point x="164" y="249" type="curve" smooth="yes"/>
      <point x="164" y="239.667"/>
      <point x="161" y="232.167"/>
      <point x="155" y="226.5" type="curve" smooth="yes"/>
      <point x="149" y="220.833"/>
      <point x="141.333" y="218"/>
      <point x="132" y="218" type="curve" smooth="yes"/>
      <point x="123.333" y="218"/>
      <point x="115.833" y="220.833"/>
      <point x="109.5" y="226.5" type="curve" smooth="yes"/>
      <point x="103.167" y="232.167"/>
      <point x="100" y="239.667"/>
    </contour>
    <contour>
      <point x="598" y="249" type="curve" smooth="yes"/>
      <point x="598" y="258.333"/>
      <point x="600.833" y="266.167"/>
      <point x="606.5" y="272.5" type="curve" smooth="yes"/>
      <point x="612.167" y="278.833"/>
      <point x="619.667" y="282"/>
      <point x="629" y="282" type="curve" smooth="yes"/>
      <point x="639" y="282"/>
      <point x="646.833" y="278.833"/>
      <point x="652.5" y="272.5" type="curve" smooth="yes"/>
      <point x="658.167" y="266.167"/>
      <point x="661" y="258.333"/>
      <point x="661" y="249" type="curve" smooth="yes"/>
      <point x="661" y="239.667"/>
      <point x="658.167" y="232.167"/>
      <point x="652.5" y="226.5" type="curve" smooth="yes"/>
      <point x="646.833" y="220.833"/>
      <point x="639" y="218"/>
      <point x="629" y="218" type="curve" smooth="yes"/>
      <point x="619.667" y="218"/>
      <point x="612.167" y="220.833"/>
      <point x="606.5" y="226.5" type="curve" smooth="yes"/>
      <point x="600.833" y="232.167"/>
      <point x="598" y="239.667"/>
    </contour>
    <contour>
      <point x="116" y="157" type="curve" smooth="yes"/>
      <point x="116" y="166.333"/>
      <point x="119" y="174.167"/>
      <point x="125" y="180.5" type="curve" smooth="yes"/>
      <point x="131" y="186.833"/>
      <point x="138.667" y="190"/>
      <point x="148" y="190" type="curve" smooth="yes"/>
      <point x="158" y="190"/>
      <point x="165.667" y="186.833"/>
      <point x="171" y="180.5" type="curve" smooth="yes"/>
      <point x="176.333" y="174.167"/>
      <point x="179" y="166.333"/>
      <point x="179" y="157" type="curve" smooth="yes"/>
      <point x="179" y="148.333"/>
      <point x="176.333" y="141"/>
      <point x="171" y="135" type="curve" smooth="yes"/>
      <point x="165.667" y="129"/>
      <point x="158" y="126"/>
      <point x="148" y="126" type="curve" smooth="yes"/>
      <point x="138.667" y="126"/>
      <point x="131" y="129"/>
      <point x="125" y="135" type="curve" smooth="yes"/>
      <point x="119" y="141"/>
      <point x="116" y="148.333"/>
    </contour>
    <contour>
      <point x="583" y="157" type="curve" smooth="yes"/>
      <point x="583" y="166.333"/>
      <point x="585.833" y="174.167"/>
      <point x="591.5" y="180.5" type="curve" smooth="yes"/>
      <point x="597.167" y="186.833"/>
      <point x="604.667" y="190"/>
      <point x="614" y="190" type="curve" smooth="yes"/>
      <point x="623.333" y="190"/>
      <point x="631" y="186.833"/>
      <point x="637" y="180.5" type="curve" smooth="yes"/>
      <point x="643" y="174.167"/>
      <point x="646" y="166.333"/>
      <point x="646" y="157" type="curve" smooth="yes"/>
      <point x="646" y="148.333"/>
      <point x="643" y="141"/>
      <point x="637" y="135" type="curve" smooth="yes"/>
      <point x="631" y="129"/>
      <point x="623.333" y="126"/>
      <point x="614" y="126" type="curve" smooth="yes"/>
      <point x="604.667" y="126"/>
      <point x="597.167" y="129"/>
      <point x="591.5" y="135" type="curve" smooth="yes"/>
      <point x="585.833" y="141"/>
      <point x="583" y="148.333"/>
    </contour>
    <contour>
      <point x="167" y="70" type="curve" smooth="yes"/>
      <point x="167" y="79.3333"/>
      <point x="170" y="87.1667"/>
      <point x="176" y="93.5" type="curve" smooth="yes"/>
      <point x="182" y="99.8333"/>
      <point x="189.667" y="103"/>
      <point x="199" y="103" type="curve" smooth="yes"/>
      <point x="208.333" y="103"/>
      <point x="215.833" y="99.8333"/>
      <point x="221.5" y="93.5" type="curve" smooth="yes"/>
      <point x="227.167" y="87.1667"/>
      <point x="230" y="79.3333"/>
      <point x="230" y="70" type="curve" smooth="yes"/>
      <point x="230" y="60.6667"/>
      <point x="227.167" y="53"/>
      <point x="221.5" y="47" type="curve" smooth="yes"/>
      <point x="215.833" y="41"/>
      <point x="208.333" y="38"/>
      <point x="199" y="38" type="curve" smooth="yes"/>
      <point x="189.667" y="38"/>
      <point x="182" y="41"/>
      <point x="176" y="47" type="curve" smooth="yes"/>
      <point x="170" y="53"/>
      <point x="167" y="60.6667"/>
    </contour>
    <contour>
      <point x="532" y="70" type="curve" smooth="yes"/>
      <point x="532" y="79.3333"/>
      <point x="534.833" y="87.1667"/>
      <point x="540.5" y="93.5" type="curve" smooth="yes"/>
      <point x="546.167" y="99.8333"/>
      <point x="553.667" y="103"/>
      <point x="563" y="103" type="curve" smooth="yes"/>
      <point x="572.333" y="103"/>
      <point x="580" y="99.8333"/>
      <point x="586" y="93.5" type="curve" smooth="yes"/>
      <point x="592" y="87.1667"/>
      <point x="595" y="79.3333"/>
      <point x="595" y="70" type="curve" smooth="yes"/>
      <point x="595" y="60.6667"/>
      <point x="592" y="53"/>
      <point x="586" y="47" type="curve" smooth="yes"/>
      <point x="580" y="41"/>
      <point x="572.333" y="38"/>
      <point x="563" y="38" type="curve" smooth="yes"/>
      <point x="553.667" y="38"/>
      <point x="546.167" y="41"/>
      <point x="540.5" y="47" type="curve" smooth="yes"/>
      <point x="534.833" y="53"/>
      <point x="532" y="60.6667"/>
    </contour>
    <contour>
      <point x="251" y="16" type="curve" smooth="yes"/>
      <point x="251" y="26"/>
      <point x="254.333" y="34"/>
      <point x="261" y="40" type="curve" smooth="yes"/>
      <point x="267.667" y="46"/>
      <point x="275.333" y="49"/>
      <point x="284" y="49" type="curve" smooth="yes"/>
      <point x="293.333" y="49"/>
      <point x="300.833" y="46"/>
      <point x="306.5" y="40" type="curve" smooth="yes"/>
      <point x="312.167" y="34"/>
      <point x="315" y="26"/>
      <point x="315" y="16" type="curve" smooth="yes"/>
      <point x="315" y="7.33333"/>
      <point x="312.167" y="0"/>
      <point x="306.5" y="-6" type="curve" smooth="yes"/>
      <point x="300.833" y="-12"/>
      <point x="293.333" y="-15"/>
      <point x="284" y="-15" type="curve" smooth="yes"/>
      <point x="275.333" y="-15"/>
      <point x="267.667" y="-12"/>
      <point x="261" y="-6" type="curve" smooth="yes"/>
      <point x="254.333" y="0"/>
      <point x="251" y="7.33333"/>
    </contour>
    <contour>
      <point x="447" y="16" type="curve" smooth="yes"/>
      <point x="447" y="26"/>
      <point x="449.833" y="34"/>
      <point x="455.5" y="40" type="curve" smooth="yes"/>
      <point x="461.167" y="46"/>
      <point x="468.667" y="49"/>
      <point x="478" y="49" type="curve" smooth="yes"/>
      <point x="488" y="49"/>
      <point x="496" y="46"/>
      <point x="502" y="40" type="curve" smooth="yes"/>
      <point x="508" y="34"/>
      <point x="511" y="26"/>
      <point x="511" y="16" type="curve" smooth="yes"/>
      <point x="511" y="7.33333"/>
      <point x="508" y="0"/>
      <point x="502" y="-6" type="curve" smooth="yes"/>
      <point x="496" y="-12"/>
      <point x="488" y="-15"/>
      <point x="478" y="-15" type="curve" smooth="yes"/>
      <point x="468.667" y="-15"/>
      <point x="461.167" y="-12"/>
      <point x="455.5" y="-6" type="curve" smooth="yes"/>
      <point x="449.833" y="0"/>
      <point x="447" y="7.33333"/>
    </contour>
    <contour>
      <point x="348" y="-1" type="curve" smooth="yes"/>
      <point x="348" y="9"/>
      <point x="351" y="17"/>
      <point x="357" y="23" type="curve" smooth="yes"/>
      <point x="363" y="29"/>
      <point x="370.667" y="32"/>
      <point x="380" y="32" type="curve" smooth="yes"/>
      <point x="389.333" y="32"/>
      <point x="397" y="29"/>
      <point x="403" y="23" type="curve" smooth="yes"/>
      <point x="409" y="17"/>
      <point x="412" y="9"/>
      <point x="412" y="-1" type="curve" smooth="yes"/>
      <point x="412" y="-10.3333"/>
      <point x="409" y="-17.8333"/>
      <point x="403" y="-23.5" type="curve" smooth="yes"/>
      <point x="397" y="-29.1667"/>
      <point x="389.333" y="-32"/>
      <point x="380" y="-32" type="curve" smooth="yes"/>
      <point x="370.667" y="-32"/>
      <point x="363" y="-29.1667"/>
      <point x="357" y="-23.5" type="curve" smooth="yes"/>
      <point x="351" y="-17.8333"/>
      <point x="348" y="-10.3333"/>
    </contour>
  </outline>
</glyph>
